<svg xmlns="http://www.w3.org/2000/svg" width="96" height="96"><defs><linearGradient id="a" gradientUnits="userSpaceOnUse" x1="43.236" y1=".236" x2="125.026" y2="82.026" gradientTransform="scale(.55814)"><stop offset=".237" style="stop-color:#02b3e4;stop-opacity:1"/><stop offset=".85" style="stop-color:#ee3ec9;stop-opacity:1"/></linearGradient><linearGradient id="b" gradientUnits="userSpaceOnUse" x1="43.236" y1="43.236" x2="125.026" y2="125.026" gradientTransform="scale(.55814)"><stop offset=".237" style="stop-color:#02b3e4;stop-opacity:1"/><stop offset=".85" style="stop-color:#ee3ec9;stop-opacity:1"/></linearGradient><linearGradient id="c" gradientUnits="userSpaceOnUse" x1="43.236" y1="86.237" x2="125.026" y2="168.026" gradientTransform="scale(.55814)"><stop offset=".237" style="stop-color:#02b3e4;stop-opacity:1"/><stop offset=".85" style="stop-color:#ee3ec9;stop-opacity:1"/></linearGradient></defs><path style="stroke:none;fill-rule:nonzero;fill:url(#a)" d="M86 30H10c-2.2 0-4-1.8-4-4v-4c0-2.2 1.8-4 4-4h76c2.2 0 4 1.8 4 4v4c0 2.2-1.8 4-4 4Zm0 0"/><path style="stroke:none;fill-rule:nonzero;fill:url(#b)" d="M86 54H10c-2.2 0-4-1.8-4-4v-4c0-2.2 1.8-4 4-4h76c2.2 0 4 1.8 4 4v4c0 2.2-1.8 4-4 4Zm0 0"/><path style="stroke:none;fill-rule:nonzero;fill:url(#c)" d="M86 78H10c-2.2 0-4-1.8-4-4v-4c0-2.2 1.8-4 4-4h76c2.2 0 4 1.8 4 4v4c0 2.2-1.8 4-4 4Zm0 0"/></svg>